<svg width="256" height="256" viewBox="0 0 256 256" fill="none" xmlns="http://www.w3.org/2000/svg">
  <rect width="256" height="256" rx="56" fill="#0B1220"/>
  <rect x="38" y="48" width="180" height="160" rx="28" fill="#162238"/>
  <rect x="38" y="48" width="180" height="160" rx="28" stroke="#334155" stroke-width="2"/>
  <rect x="64" y="82" width="56" height="10" rx="5" fill="#73F0E2"/>
  <rect x="64" y="112" width="126" height="18" rx="9" fill="#263550"/>
  <rect x="68" y="116" width="80" height="10" rx="5" fill="#FFFFFF"/>
  <rect x="64" y="146" width="98" height="10" rx="5" fill="#4A5B7B"/>
  <rect x="64" y="172" width="62" height="10" rx="5" fill="#4A5B7B"/>
  <path d="M188 97V107" stroke="#FF7A1A" stroke-width="7" stroke-linecap="round"/>
  <path d="M188 135V145" stroke="#FF7A1A" stroke-width="7" stroke-linecap="round"/>
  <path d="M177 121H167" stroke="#FF7A1A" stroke-width="7" stroke-linecap="round"/>
  <path d="M199 121H209" stroke="#FF7A1A" stroke-width="7" stroke-linecap="round"/>
  <circle cx="188" cy="121" r="17" fill="#FFFFFF"/>
  <circle cx="188" cy="121" r="13" stroke="#FF7A1A" stroke-width="7"/>
  <circle cx="188" cy="121" r="4.5" fill="#FF7A1A"/>
</svg>
